<svg xmlns="http://www.w3.org/2000/svg" viewBox="0 0 19.639 19.639"><path d="M17.079 10.799h2.56v-.709h-2.56V7.971a9.438 9.438 0 002.56 1.476V8.87a8.793 8.793 0 01-2.56-1.61v-.48H15.85v.38c-.728.727-2.724 2.427-5.541 2.427-3.479 0-5.633-1.788-6.317-2.458V6.78H2.703v.453A8.796 8.796 0 010 8.918v.575a9.397 9.397 0 002.703-1.545v2.143H0v.708h2.703v1.268h-.3v.791h1.868v-.791h-.282v-1.268h11.804v1.268h-.289v.791h1.852v-.791h-.276l-.001-1.268zm-13.09-.709V7.859c.911.79 2.775 2.039 5.579 2.231H3.989zm11.86 0h-4.92c2.315-.188 4.021-1.383 4.92-2.188v2.188z"/></svg>